<svg xmlns="http://www.w3.org/2000/svg" viewBox="0 0 1022.98 1012.09"><defs><style>.cls-1{fill:#0eefae;}</style></defs><g id="Layer_2" data-name="Layer 2"><g id="Layer_3" data-name="Layer 3"><path class="cls-1" d="M979.65,202.78l-141,80.29s-10.11-169.55-65-268c0,0-418.47-59.17-654.6,57.19l87.06,120.6L39.71,259.09S-37.42,651.63,23.31,856l140-65.3,47.41,186.47s359.11,78.92,641.78-.36l-68.85-91L1011.5,785.22S1052.47,373.39,979.65,202.78Zm-704,560.51C162.71,568.7,219.12,303.14,219.12,303.14c324.78-150.73,522.19-33.05,522.19-33.05l60.62,456.3C627.21,825.9,275.6,763.29,275.6,763.29Z"/><path class="cls-1" d="M702.76,383.84l10,92.39-204.59-1.74-10.65-32.33S604.43,358.48,702.76,383.84Z"/><path class="cls-1" d="M258.73,391.38l-6.86,92.68,204.85-8.69,9.11-32.67S356.14,362.7,258.73,391.38Z"/><path class="cls-1" d="M379.73,560s99.72-.23,172.19-7.84c54.46-5.72,122.64-28.52,122.64-28.52S644.87,781.76,379.73,560Z"/></g></g></svg>